<?xml version="1.0" encoding="UTF-8"?>
<svg width="32px" height="32px" viewBox="0 0 32 32" version="1.1" xmlns="http://www.w3.org/2000/svg" xmlns:xlink="http://www.w3.org/1999/xlink">
    <title>编组 21备份 2@4x</title>
    <g id="M站" stroke="none" stroke-width="1" fill="none" fill-rule="evenodd">
        <g id="书籍详情-英文" transform="translate(-315, -477)">
            <g id="编组-20" transform="translate(16, 460.5)">
                <g id="编组-14" transform="translate(0, 16.5)">
                    <g id="编组-21备份-2" transform="translate(299, 0)">
                        <circle id="椭圆形备份-5" fill="#3A91FF" cx="16" cy="16" r="16"></circle>
                        <g id="编组-16" transform="translate(9.3333, 12.6667)" fill="#FFFFFF">
                            <path d="M10,0 C11.8409492,0 13.3333333,1.49238417 13.3333333,3.33333333 C13.3333333,5.1742825 11.8409492,6.66666667 10,6.66666667 L7.33333333,6.66666667 L7.333,5.333 L10,5.33333333 C11.0543618,5.33333333 11.9181651,4.51745554 11.9945143,3.48259568 L12,3.33333333 C12,2.22876383 11.1045695,1.33333333 10,1.33333333 L7.333,1.333 L7.33333333,3.03879484e-13 Z M5.999,1.333 L3.33333333,1.33333333 C2.22876383,1.33333333 1.33333333,2.22876383 1.33333333,3.33333333 C1.33333333,4.43790283 2.22876383,5.33333333 3.33333333,5.33333333 L5.999,5.333 L6,6.66666667 L3.33333333,6.66666667 C1.49238417,6.66666667 0,5.1742825 0,3.33333333 C0,1.49238417 1.49238417,0 3.33333333,0 L6,3.03634555e-13 L5.999,1.333 Z" id="形状结合" fill-rule="nonzero"></path>
                            <rect id="矩形" x="4" y="2.66666667" width="5.33333333" height="1.33333333"></rect>
                        </g>
                    </g>
                </g>
            </g>
        </g>
    </g>
</svg>